<svg width="7" height="5" viewBox="0 0 7 5" fill="none" xmlns="http://www.w3.org/2000/svg">
<path d="M0.440806 0.531251H5.84096C5.89563 0.531403 5.94923 0.544831 5.99597 0.570087C6.04271 0.595344 6.08083 0.631473 6.10623 0.674587C6.13162 0.7177 6.14333 0.766165 6.1401 0.814765C6.13686 0.863364 6.1188 0.910258 6.08787 0.950398L3.38779 4.42326C3.27589 4.56725 3.00648 4.56725 2.89428 4.42326L0.194199 0.950398C0.162945 0.910342 0.144617 0.863425 0.141207 0.814744C0.137796 0.766064 0.149433 0.717482 0.174852 0.674277C0.200272 0.631072 0.238503 0.594897 0.28539 0.569681C0.332278 0.544465 0.38603 0.531174 0.440806 0.531251Z" fill="#0E8FEB"/>
</svg>
