<svg width="11" height="11" viewBox="0 0 11 11" fill="none" xmlns="http://www.w3.org/2000/svg">
<path d="M2.93983 3.75488H8.33998C8.39466 3.75504 8.44825 3.76846 8.49499 3.79372C8.54173 3.81898 8.57985 3.85511 8.60525 3.89822C8.63065 3.94133 8.64236 3.9898 8.63912 4.0384C8.63589 4.087 8.61783 4.13389 8.58689 4.17403L5.88681 7.64689C5.77491 7.79088 5.5055 7.79088 5.3933 7.64689L2.69322 4.17403C2.66197 4.13397 2.64364 4.08706 2.64023 4.03838C2.63682 3.9897 2.64846 3.94111 2.67388 3.89791C2.6993 3.85471 2.73753 3.81853 2.78441 3.79331C2.8313 3.7681 2.88505 3.75481 2.93983 3.75488Z" fill="#727272"/>
</svg>
