<svg width="13" height="14" viewBox="0 0 13 14" fill="none" xmlns="http://www.w3.org/2000/svg">
<path d="M3.83333 8.10938C3.64444 8.10938 3.48622 8.04538 3.35867 7.91738C3.23111 7.78938 3.16711 7.63115 3.16667 7.44271C3.16622 7.25426 3.23022 7.09604 3.35867 6.96804C3.48711 6.84004 3.64533 6.77604 3.83333 6.77604C4.02133 6.77604 4.17978 6.84004 4.30867 6.96804C4.43756 7.09604 4.50133 7.25426 4.5 7.44271C4.49867 7.63115 4.43467 7.7896 4.308 7.91804C4.18133 8.04649 4.02311 8.11026 3.83333 8.10938ZM6.5 8.10938C6.31111 8.10938 6.15289 8.04538 6.02533 7.91738C5.89778 7.78938 5.83378 7.63115 5.83333 7.44271C5.83289 7.25426 5.89689 7.09604 6.02533 6.96804C6.15378 6.84004 6.312 6.77604 6.5 6.77604C6.688 6.77604 6.84644 6.84004 6.97533 6.96804C7.10422 7.09604 7.168 7.25426 7.16667 7.44271C7.16533 7.63115 7.10133 7.7896 6.97467 7.91804C6.848 8.04649 6.68978 8.11026 6.5 8.10938ZM9.16667 8.10938C8.97778 8.10938 8.81956 8.04538 8.692 7.91738C8.56444 7.78938 8.50044 7.63115 8.5 7.44271C8.49956 7.25426 8.56356 7.09604 8.692 6.96804C8.82044 6.84004 8.97867 6.77604 9.16667 6.77604C9.35467 6.77604 9.51311 6.84004 9.642 6.96804C9.77089 7.09604 9.83467 7.25426 9.83333 7.44271C9.832 7.63115 9.768 7.7896 9.64133 7.91804C9.51467 8.04649 9.35644 8.11026 9.16667 8.10938ZM1.83333 13.4427C1.46667 13.4427 1.15289 13.3123 0.892 13.0514C0.631111 12.7905 0.500444 12.4765 0.5 12.1094V2.77604C0.5 2.40938 0.630667 2.0956 0.892 1.83471C1.15333 1.57382 1.46711 1.44315 1.83333 1.44271H2.5V0.109375H3.83333V1.44271H9.16667V0.109375H10.5V1.44271H11.1667C11.5333 1.44271 11.8473 1.57337 12.1087 1.83471C12.37 2.09604 12.5004 2.40982 12.5 2.77604V12.1094C12.5 12.476 12.3696 12.79 12.1087 13.0514C11.8478 13.3127 11.5338 13.4432 11.1667 13.4427H1.83333ZM1.83333 12.1094H11.1667V5.44271H1.83333V12.1094Z" fill="#727272"/>
</svg>
