<svg width="25" height="25" viewBox="0 0 25 25" fill="none" xmlns="http://www.w3.org/2000/svg">
<path d="M4.64062 8.25488V3.75488C4.64062 3.48967 4.74598 3.23531 4.93352 3.04778C5.12105 2.86024 5.37541 2.75488 5.64062 2.75488H19.6406C19.9058 2.75488 20.1602 2.86024 20.3477 3.04778C20.5353 3.23531 20.6406 3.48967 20.6406 3.75488V21.7549C20.6406 22.0201 20.5353 22.2745 20.3477 22.462C20.1602 22.6495 19.9058 22.7549 19.6406 22.7549H5.64062C5.37541 22.7549 5.12105 22.6495 4.93352 22.462C4.74598 22.2745 4.64062 22.0201 4.64062 21.7549V17.2549" stroke="#4CA452" stroke-width="2" stroke-linecap="round" stroke-linejoin="round"/>
<path d="M16.1406 8.25488H17.6406M14.6406 12.2549H17.6406M14.6406 16.2549H17.6406" stroke="#4CA452" stroke-width="2" stroke-linecap="round"/>
<path d="M5.64062 11.2549L8.64062 14.2549M8.64062 11.2549L5.64062 14.2549M2.64062 8.25488H11.6406V17.2549H2.64062V8.25488Z" stroke="#4CA452" stroke-width="2" stroke-linecap="round" stroke-linejoin="round"/>
</svg>
