<svg width="139" height="33" viewBox="0 0 139 33" fill="none" xmlns="http://www.w3.org/2000/svg">
<g clip-path="url(#clip0_312_268)">
<path d="M43.831 16.9186L46.9682 17.8856C46.7595 18.7816 46.4243 19.5301 45.9738 20.1311C45.5178 20.7321 44.9573 21.1856 44.287 21.4916C43.6167 21.7975 42.7596 21.9505 41.7212 21.9505C40.463 21.9505 39.4301 21.7647 38.6334 21.3932C37.8367 21.0217 37.1445 20.3661 36.5676 19.4263C35.9852 18.4866 35.6995 17.2901 35.6995 15.8259C35.6995 13.8754 36.2104 12.3729 37.2324 11.3294C38.2543 10.2804 39.6938 9.75586 41.5619 9.75586C43.0233 9.75586 44.1717 10.0564 45.0068 10.6573C45.8419 11.2583 46.4628 12.1817 46.8693 13.4274L43.7046 14.1431C43.5948 13.7825 43.4794 13.5202 43.3585 13.3563C43.1607 13.0777 42.9135 12.8646 42.6223 12.7116C42.3311 12.5641 42.0069 12.4876 41.6498 12.4876C40.8366 12.4876 40.2158 12.8209 39.7817 13.482C39.4576 13.9737 39.2927 14.7495 39.2927 15.804C39.2927 17.1098 39.485 18.0058 39.8806 18.4921C40.2707 18.9783 40.8201 19.2187 41.5234 19.2187C42.2267 19.2187 42.7267 19.022 43.0783 18.6287C43.4299 18.2353 43.6827 17.6671 43.842 16.924L43.831 16.9186Z" fill="#231916"/>
<path d="M49.2319 20.8903C48.2099 20.0271 47.699 18.8961 47.699 17.492C47.699 16.1862 48.133 15.1154 48.9956 14.2685C49.8582 13.4217 51.0285 13.001 52.501 13.001C54.1822 13.001 55.4514 13.4982 56.314 14.4871C57.0063 15.2847 57.3524 16.2682 57.3524 17.4428C57.3524 18.7596 56.9239 19.8359 56.0668 20.6718C55.2097 21.5132 54.0229 21.9284 52.512 21.9284C51.1604 21.9284 50.0725 21.5787 49.2374 20.8849L49.2319 20.8903ZM50.9241 17.4866C50.9241 18.246 51.078 18.8142 51.3801 19.1748C51.6823 19.5408 52.0669 19.7211 52.523 19.7211C52.979 19.7211 53.3691 19.5408 53.6658 19.1802C53.9625 18.8197 54.1108 18.246 54.1108 17.4483C54.1108 16.7107 53.9625 16.1589 53.6603 15.7929C53.3581 15.4323 52.99 15.252 52.5449 15.252C52.0779 15.252 51.6878 15.4377 51.3801 15.8038C51.0725 16.1698 50.9186 16.7326 50.9186 17.4811L50.9241 17.4866Z" fill="#231916"/>
<path d="M62.116 12.4492C62.0886 12.5694 62.0776 12.8152 62.0776 13.1977H63.6105V15.5962H62.0776V21.7427H58.8524V15.5962H57.6492V13.1977H58.8524V12.8098C58.8524 12.4601 58.8909 12.0777 58.9623 11.657C59.0337 11.2363 59.1766 10.8975 59.3799 10.6298C59.5832 10.3621 59.8689 10.149 60.2315 9.98512C60.5996 9.82121 61.1325 9.73926 61.8413 9.73926C62.4072 9.73926 63.2259 9.80482 64.3027 9.94141L63.9456 11.9192C63.561 11.8537 63.2478 11.8209 63.0116 11.8209C62.7204 11.8209 62.5116 11.87 62.3852 11.9684C62.2589 12.0667 62.171 12.2252 62.116 12.4382V12.4492Z" fill="#231916"/>
<path d="M68.418 12.4492C68.3906 12.5694 68.3796 12.8152 68.3796 13.1977H69.9125V15.5962H68.3796V21.7427H65.1544V15.5962H63.9512V13.1977H65.1544V12.8098C65.1544 12.4601 65.1929 12.0777 65.2643 11.657C65.3357 11.2363 65.4786 10.8975 65.6819 10.6298C65.8852 10.3621 66.1709 10.149 66.5335 9.98512C66.9016 9.82121 67.4346 9.73926 68.1433 9.73926C68.7092 9.73926 69.5279 9.80482 70.6048 9.94141L70.2476 11.9192C69.863 11.8537 69.5499 11.8209 69.3136 11.8209C69.0224 11.8209 68.8136 11.87 68.6872 11.9684C68.5609 12.0667 68.473 12.2252 68.418 12.4382V12.4492Z" fill="#231916"/>
<path d="M79.7417 18.2842H73.2859C73.3464 18.8087 73.4837 19.2021 73.7035 19.4589C74.0167 19.8304 74.4233 20.0162 74.9232 20.0162C75.2419 20.0162 75.5386 19.9342 75.8243 19.7758C76.0001 19.672 76.1869 19.4917 76.3847 19.2349L79.5549 19.5299C79.0714 20.3877 78.4835 21.0051 77.7968 21.3766C77.11 21.7481 76.1265 21.9339 74.8463 21.9339C73.731 21.9339 72.8574 21.7754 72.2201 21.4531C71.5827 21.1362 71.0553 20.6281 70.6322 19.9342C70.2146 19.2403 70.0059 18.4208 70.0059 17.4866C70.0059 16.1534 70.4289 15.0717 71.2695 14.2412C72.1102 13.4162 73.2695 13.001 74.7529 13.001C75.9562 13.001 76.9067 13.1867 77.599 13.5583C78.2967 13.9298 78.8242 14.4652 79.1868 15.17C79.5494 15.8748 79.7307 16.7872 79.7307 17.9127V18.2842H79.7417ZM76.4671 16.7162C76.4012 16.0824 76.2364 15.6289 75.9672 15.3558C75.6979 15.0826 75.3408 14.946 74.8958 14.946C74.3848 14.946 73.9782 15.1536 73.6705 15.5634C73.4728 15.8202 73.3519 16.2026 73.2969 16.7162H76.4671Z" fill="#231916"/>
<path d="M90.1424 18.2842H83.6866C83.747 18.8087 83.8844 19.2021 84.1042 19.4589C84.4173 19.8304 84.8184 20.0162 85.3239 20.0162C85.6426 20.0162 85.9392 19.9342 86.225 19.7758C86.4008 19.672 86.5876 19.4917 86.7854 19.2349L89.9556 19.5299C89.4721 20.3877 88.8842 21.0051 88.1974 21.3766C87.5106 21.7481 86.5271 21.9339 85.247 21.9339C84.1316 21.9339 83.258 21.7754 82.6207 21.4531C81.9834 21.1362 81.4559 20.6281 81.0328 19.9342C80.6153 19.2403 80.4065 18.4208 80.4065 17.4866C80.4065 16.1534 80.8296 15.0717 81.6702 14.2412C82.5108 13.4162 83.6701 13.001 85.1536 13.001C86.3568 13.001 87.3073 13.1867 87.9996 13.5583C88.6974 13.9298 89.2248 14.4652 89.5875 15.17C89.9501 15.8748 90.1314 16.7872 90.1314 17.9127V18.2842H90.1424ZM86.8678 16.7162C86.8018 16.0824 86.637 15.6289 86.3678 15.3558C86.0986 15.0826 85.7415 14.946 85.2964 14.946C84.7854 14.946 84.3789 15.1536 84.0712 15.5634C83.8789 15.8202 83.7525 16.2026 83.6976 16.7162H86.8678Z" fill="#231916"/>
<path d="M104.543 16.9186L107.686 17.8856C107.477 18.7816 107.142 19.5301 106.691 20.1311C106.241 20.7321 105.675 21.1856 105.004 21.4916C104.334 21.7975 103.477 21.9505 102.438 21.9505C101.18 21.9505 100.147 21.7647 99.3507 21.3932C98.554 21.0217 97.8617 20.3661 97.2848 19.4263C96.7025 18.4866 96.4167 17.2901 96.4167 15.8259C96.4167 13.8754 96.9277 12.3729 97.9497 11.3294C98.9716 10.2804 100.411 9.75586 102.279 9.75586C103.741 9.75586 104.889 10.0564 105.724 10.6573C106.559 11.2583 107.18 12.1817 107.587 13.4274L104.422 14.1431C104.312 13.7825 104.197 13.5202 104.076 13.3563C103.878 13.0777 103.631 12.8646 103.34 12.7116C103.048 12.5641 102.724 12.4876 102.367 12.4876C101.554 12.4876 100.933 12.8209 100.499 13.482C100.169 13.9737 100.01 14.7495 100.01 15.804C100.01 17.1098 100.202 18.0058 100.598 18.4921C100.988 18.9783 101.537 19.2187 102.241 19.2187C102.944 19.2187 103.444 19.022 103.796 18.6287C104.147 18.2353 104.4 17.6671 104.559 16.924L104.543 16.9186Z" fill="#231916"/>
<path d="M117.658 21.7428H114.652V20.3606C114.202 20.9288 113.751 21.3331 113.295 21.5735C112.839 21.8139 112.279 21.9341 111.614 21.9341C110.73 21.9341 110.032 21.6663 109.532 21.1255C109.026 20.5846 108.779 19.7541 108.779 18.6341V13.1924H112.015V17.891C112.015 18.4265 112.114 18.8089 112.306 19.0329C112.499 19.2569 112.773 19.3717 113.131 19.3717C113.515 19.3717 113.828 19.2241 114.076 18.9236C114.323 18.6232 114.444 18.0823 114.444 17.3064V13.1924H117.663V21.7374L117.658 21.7428Z" fill="#231916"/>
<path d="M119.224 9.94687H122.476V14.0336C122.795 13.6894 123.163 13.4326 123.57 13.2632C123.976 13.0939 124.432 13.0065 124.927 13.0065C125.949 13.0065 126.795 13.378 127.465 14.1265C128.135 14.875 128.471 15.9513 128.471 17.35C128.471 18.2842 128.317 19.1038 128.009 19.814C127.701 20.5243 127.278 21.0543 126.74 21.4094C126.202 21.7591 125.597 21.9339 124.938 21.9339C124.372 21.9339 123.855 21.8082 123.388 21.5624C123.037 21.3711 122.652 21.0051 122.235 20.4751V21.7372H119.218V9.94141L119.224 9.94687ZM122.449 17.4483C122.449 18.1859 122.586 18.7159 122.855 19.0437C123.125 19.3715 123.471 19.5409 123.888 19.5409C124.273 19.5409 124.597 19.377 124.855 19.0546C125.114 18.7323 125.245 18.1859 125.245 17.4155C125.245 16.7381 125.119 16.2409 124.861 15.9295C124.603 15.6126 124.295 15.4541 123.932 15.4541C123.493 15.4541 123.136 15.618 122.861 15.9513C122.586 16.2791 122.443 16.7818 122.443 17.4538L122.449 17.4483Z" fill="#231916"/>
<path d="M138.932 18.2842H132.476C132.536 18.8087 132.674 19.2021 132.893 19.4589C133.207 19.8304 133.608 20.0162 134.113 20.0162C134.432 20.0162 134.729 19.9342 135.014 19.7758C135.19 19.672 135.377 19.4917 135.575 19.2349L138.745 19.5299C138.261 20.3877 137.673 21.0051 136.987 21.3766C136.3 21.7481 135.316 21.9339 134.036 21.9339C132.921 21.9339 132.047 21.7754 131.41 21.4531C130.773 21.1362 130.245 20.6281 129.822 19.9342C129.405 19.2403 129.196 18.4208 129.196 17.4866C129.196 16.1534 129.619 15.0717 130.459 14.2412C131.3 13.4162 132.465 13.001 133.943 13.001C135.146 13.001 136.097 13.1867 136.789 13.5583C137.481 13.9298 138.014 14.4652 138.377 15.17C138.739 15.8748 138.921 16.7872 138.921 17.9127V18.2842H138.932ZM135.657 16.7162C135.597 16.0824 135.426 15.6289 135.157 15.3558C134.888 15.0826 134.531 14.946 134.086 14.946C133.575 14.946 133.168 15.1536 132.86 15.5634C132.668 15.8202 132.542 16.2026 132.487 16.7162H135.657Z" fill="#231916"/>
<path d="M14.1234 14.9189C14.1234 14.9189 16.1728 15.5199 16.1728 18.0714V31.1893C16.1728 31.1893 16.0354 32.5825 14.7717 31.7903L2.98101 24.2342C2.98101 24.2342 1.39316 23.3546 1.44261 20.6665L0.931641 9.12207C0.931641 9.12207 1.11845 7.87092 2.33268 8.47191L14.1289 14.9134L14.1234 14.9189Z" fill="#5E2F00"/>
<path d="M19.1124 14.9189C19.1124 14.9189 17.063 15.5199 17.063 18.0714V31.1893C17.063 31.1893 17.2003 32.5825 18.464 31.7903L30.2603 24.2342C30.2603 24.2342 31.8481 23.3546 31.7987 20.6665L32.3096 9.12207C32.3096 9.12207 32.1228 7.87092 30.9086 8.47191L19.1124 14.9134V14.9189Z" fill="#5E2F00"/>
<path d="M15.6178 14.7328C15.6178 14.7328 16.1287 15.3337 17.1122 15.0114L30.4908 7.54819C30.4908 7.54819 30.9578 7.08379 30.5842 6.76144L24.6119 0.22157C24.6119 0.22157 24.1449 -0.0078991 23.5405 0.0358093L7.92577 2.07371C7.92577 2.07371 6.61813 2.25947 7.228 3.37404L15.6178 14.7328Z" fill="#805808"/>
<path d="M4.46437 19.453C4.46437 19.453 4.9204 18.1745 5.00281 17.8412C5.00281 17.8412 5.04677 17.2621 4.54679 17.5134C4.54679 17.5134 2.17875 18.3821 3.09629 21.928C3.09629 21.928 3.51386 23.3703 5.42038 23.2501C5.42038 23.2501 5.8764 23.0862 5.50279 22.7147C5.50279 22.7147 4.00835 21.7258 4.46437 19.453Z" fill="white"/>
<path d="M11.1014 17.2242C11.7223 16.1534 9.73334 16.4375 9.73334 16.4375C7.95869 16.8144 7.12355 17.9618 6.77741 18.612C6.68401 18.4153 6.57962 18.2131 6.45325 18.0055C6.45325 18.0055 5.91481 17.1805 5.29396 18.2514C5.29396 18.2514 4.04675 20.3166 5.33791 22.0048C5.33791 22.0048 6.33238 23.3652 7.04114 21.8792C7.04114 21.8792 7.28838 21.4749 7.29937 20.7318C8.68393 17.8525 11.1069 17.2188 11.1069 17.2188L11.1014 17.2242Z" fill="white"/>
<path d="M13.1784 19.5351C13.1784 19.5351 13.6784 19.1636 13.8817 18.9178C13.8817 18.9178 14.0905 18.3386 13.4641 18.3386C13.4641 18.3386 12.5301 18.3004 11.629 18.9615C11.8103 18.5244 11.8873 18.2184 11.8873 18.2184C12.0136 17.0656 11.0576 17.5573 11.0576 17.5573C8.94232 18.508 7.90389 20.4858 7.90389 20.4858C7.07426 21.6004 7.65665 21.8899 7.65665 21.8899C8.761 22.0648 9.60712 21.6659 10.25 21.0759C10.1511 21.4255 10.0686 21.8189 10.0247 22.2614C10.0247 22.2614 9.89832 24.201 11.3104 24.7801C11.3104 24.7801 12.0136 25.108 12.14 24.3267C12.14 24.3267 11.1016 21.2725 13.1784 19.5406V19.5351Z" fill="white"/>
<path d="M14.3815 19.246C13.7991 19.0821 13.4254 19.6612 13.4254 19.6612C11.8486 21.273 12.5134 23.9938 12.5134 23.9938C13.5518 25.1521 14.299 23.2071 14.299 23.2071C15.2935 20.4808 14.3815 19.246 14.3815 19.246Z" fill="white"/>
<path d="M18.9583 28.8617L19.3924 28.7415C19.4363 28.8617 19.4528 28.971 19.4473 29.0748C19.4418 29.1786 19.4088 29.2715 19.3539 29.3589C19.2989 29.4463 19.211 29.5228 19.0902 29.5993C18.9473 29.6922 18.81 29.7468 18.6946 29.7632C18.5737 29.7796 18.4473 29.7523 18.31 29.6922C18.1726 29.6266 18.0517 29.5119 17.9419 29.3425C17.7935 29.1185 17.7441 28.9055 17.7825 28.7088C17.821 28.5121 17.9474 28.3427 18.1671 28.2061C18.3374 28.0969 18.4913 28.0477 18.6341 28.0531C18.777 28.0586 18.9144 28.1187 19.0572 28.2334L18.744 28.5503C18.7056 28.5175 18.6726 28.4957 18.6451 28.4848C18.6012 28.4684 18.5572 28.4629 18.5133 28.4629C18.4693 28.4629 18.4254 28.4848 18.3869 28.5066C18.2935 28.5667 18.244 28.6487 18.244 28.7579C18.244 28.8399 18.2825 28.9382 18.3594 29.0639C18.4583 29.2169 18.5462 29.3043 18.6286 29.3316C18.7111 29.3589 18.7935 29.348 18.8704 29.2934C18.9473 29.2442 18.9968 29.1841 19.0078 29.1131C19.0187 29.042 19.0078 28.9601 18.9693 28.8617H18.9583Z" fill="white"/>
<path d="M19.8758 28.9211C19.6945 28.8992 19.5516 28.8064 19.4473 28.6424C19.3484 28.4895 19.3209 28.3365 19.3538 28.1726C19.3923 28.0087 19.4912 27.8776 19.6615 27.7683C19.8538 27.6426 20.0406 27.6044 20.211 27.659C20.3483 27.7027 20.4637 27.7901 20.5516 27.9213C20.6505 28.0742 20.6835 28.2272 20.645 28.3911C20.6065 28.5496 20.5022 28.6862 20.3318 28.8009C20.178 28.8992 20.0242 28.9429 19.8758 28.9211ZM19.8154 28.4021C19.8703 28.4895 19.9307 28.5441 19.9967 28.5605C20.0571 28.5824 20.1176 28.5714 20.167 28.5386C20.2219 28.5059 20.2494 28.4567 20.2604 28.3911C20.2714 28.3256 20.2439 28.2491 20.1835 28.1562C20.1285 28.0688 20.0681 28.0196 20.0077 27.9977C19.9472 27.9759 19.8868 27.9868 19.8373 28.0196C19.7824 28.0524 19.7494 28.1016 19.7439 28.1671C19.7384 28.2327 19.7604 28.3092 19.8154 28.3966V28.4021Z" fill="white"/>
<path d="M20.733 26.9929C20.733 26.9929 20.755 27.0366 20.7825 27.0803L20.9583 26.9656L21.1396 27.2443L20.9638 27.359L21.4253 28.0693L21.0517 28.3096L20.5902 27.5994L20.4528 27.6868L20.2715 27.4082L20.4088 27.3207L20.3814 27.277C20.3539 27.2388 20.3319 27.1896 20.3099 27.135C20.288 27.0804 20.277 27.0312 20.2825 26.9875C20.2825 26.9438 20.3045 26.8946 20.3319 26.8509C20.3594 26.8072 20.4198 26.758 20.4968 26.7034C20.5627 26.6597 20.6616 26.6105 20.7934 26.5449L20.9033 26.8017C20.8539 26.8236 20.8154 26.84 20.7879 26.8618C20.755 26.8837 20.733 26.9055 20.7275 26.9274C20.722 26.9492 20.722 26.9711 20.7275 27.0039L20.733 26.9929Z" fill="white"/>
<path d="M21.4581 26.5281C21.4581 26.5281 21.4801 26.5718 21.5076 26.6155L21.6834 26.5008L21.8647 26.7794L21.6889 26.8941L22.1504 27.6044L21.7768 27.8448L21.3152 27.1345L21.1779 27.222L20.9966 26.9433L21.1339 26.8559L21.1065 26.8122C21.079 26.7739 21.057 26.7248 21.035 26.6701C21.0131 26.6155 21.0021 26.5663 21.0076 26.5226C21.0076 26.4789 21.0295 26.4297 21.057 26.386C21.0845 26.3423 21.1449 26.2932 21.2218 26.2385C21.2878 26.1948 21.3867 26.1456 21.5185 26.0801L21.6229 26.3369C21.5735 26.3587 21.535 26.3751 21.5076 26.397C21.4746 26.4188 21.4526 26.4407 21.4471 26.4625C21.4416 26.4844 21.4416 26.5062 21.4471 26.539L21.4581 26.5281Z" fill="white"/>
<path d="M23.2 26.3645L22.4583 26.8398C22.5022 26.8945 22.5517 26.9327 22.5956 26.9437C22.6616 26.9655 22.722 26.9546 22.7769 26.9163C22.8154 26.8945 22.8429 26.8617 22.8648 26.8235C22.8758 26.8016 22.8868 26.7634 22.8868 26.7196L23.2769 26.5175C23.2879 26.6541 23.2659 26.7688 23.211 26.8617C23.1615 26.9546 23.0626 27.0475 22.9143 27.1458C22.7879 27.2278 22.6725 27.2769 22.5737 27.2824C22.4748 27.2933 22.3759 27.2715 22.277 27.2223C22.1781 27.1731 22.0902 27.0966 22.0187 26.9874C21.9198 26.8344 21.8869 26.6759 21.9198 26.5175C21.9528 26.3591 22.0572 26.2279 22.2275 26.1187C22.3649 26.0312 22.4912 25.9821 22.5956 25.9711C22.7055 25.9602 22.8044 25.9875 22.8978 26.0367C22.9912 26.0913 23.0791 26.1842 23.167 26.3153L23.1945 26.3591L23.2 26.3645ZM22.7055 26.4246C22.6506 26.3536 22.5956 26.3153 22.5462 26.3044C22.4967 26.2935 22.4418 26.3044 22.3923 26.3372C22.3319 26.3754 22.3044 26.4301 22.2989 26.5011C22.2989 26.5448 22.3099 26.5995 22.3429 26.6595L22.711 26.4246H22.7055Z" fill="white"/>
<path d="M24.3978 25.594L23.656 26.0693C23.7 26.124 23.7494 26.1622 23.7934 26.1731C23.8593 26.195 23.9198 26.1841 23.9747 26.1458C24.0132 26.124 24.0406 26.0912 24.0626 26.0529C24.0736 26.0256 24.0846 25.9928 24.0846 25.9491L24.4747 25.747C24.4857 25.8836 24.4637 25.9983 24.4087 26.0912C24.3593 26.1841 24.2604 26.277 24.1121 26.3753C23.9857 26.4573 23.8703 26.5064 23.7714 26.5119C23.6725 26.5228 23.5736 26.501 23.4747 26.4518C23.3758 26.4026 23.2879 26.3261 23.2165 26.2169C23.1176 26.0639 23.0846 25.9054 23.1176 25.747C23.1506 25.5885 23.2549 25.4574 23.4253 25.3481C23.5626 25.2607 23.689 25.2116 23.7934 25.2006C23.9033 25.1897 24.0022 25.217 24.0956 25.2662C24.189 25.3208 24.2769 25.4137 24.3648 25.5448L24.3923 25.5885L24.3978 25.594ZM23.9033 25.6541C23.8483 25.5831 23.7934 25.5448 23.7439 25.5339C23.6945 25.523 23.6395 25.5339 23.5901 25.5667C23.5297 25.6049 23.5022 25.6596 23.4967 25.7306C23.4967 25.7743 23.5077 25.8289 23.5406 25.889L23.9088 25.6541H23.9033Z" fill="white"/>
<path d="M25.9581 24.3705L26.3921 24.2503C26.4361 24.3705 26.4525 24.4798 26.4471 24.5836C26.4416 24.6874 26.4086 24.7803 26.3536 24.8677C26.2987 24.9551 26.2108 25.0316 26.0899 25.1081C25.9471 25.201 25.8097 25.2556 25.6943 25.272C25.5735 25.2884 25.4471 25.2611 25.3097 25.201C25.1724 25.1354 25.0515 25.0207 24.9416 24.8513C24.7933 24.6273 24.7438 24.4142 24.7823 24.2176C24.8207 24.0209 24.9471 23.8515 25.1669 23.7149C25.3372 23.6056 25.491 23.5565 25.6339 23.5619C25.7767 23.5674 25.9141 23.6275 26.057 23.7422L25.7438 24.0591C25.7053 24.0263 25.6724 24.0045 25.6449 23.9936C25.6009 23.9772 25.557 23.9717 25.513 23.9717C25.4691 23.9717 25.4251 23.9936 25.3867 24.0154C25.2933 24.0755 25.2438 24.1575 25.2438 24.2667C25.2438 24.3487 25.2823 24.447 25.3592 24.5727C25.4581 24.7257 25.546 24.8131 25.6284 24.8404C25.7108 24.8677 25.7932 24.8568 25.8702 24.8022C25.9471 24.753 25.9965 24.6929 26.0075 24.6219C26.0185 24.5508 26.0075 24.4689 25.969 24.3705H25.9581Z" fill="white"/>
<path d="M27.8315 23.9547L27.4854 24.1787L27.381 24.0203C27.37 24.1186 27.348 24.2006 27.3151 24.2607C27.2821 24.3208 27.2271 24.3754 27.1502 24.4246C27.0458 24.4902 26.9469 24.512 26.848 24.4847C26.7491 24.4574 26.6557 24.3809 26.5733 24.2552L26.1667 23.6269L26.5404 23.3865L26.892 23.9274C26.9305 23.9875 26.9744 24.0257 27.0129 24.0367C27.0513 24.0476 27.0898 24.0367 27.1337 24.0148C27.1777 23.9875 27.2052 23.9438 27.2107 23.8946C27.2162 23.84 27.1887 23.769 27.1337 23.6815L26.8261 23.2062L27.1997 22.9658L27.837 23.9493L27.8315 23.9547Z" fill="white"/>
<path d="M27.1283 22.4797L27.5019 22.2393L27.8096 22.7091C27.8206 22.6436 27.8426 22.5889 27.8755 22.5398C27.9085 22.4906 27.9579 22.4469 28.0129 22.4086C28.1338 22.3321 28.2546 22.3157 28.392 22.3485C28.5238 22.3868 28.6447 22.4851 28.7491 22.6436C28.8205 22.7528 28.8645 22.8566 28.881 22.9604C28.8975 23.0643 28.892 23.1571 28.8535 23.2391C28.815 23.321 28.7601 23.3866 28.6832 23.4303C28.6172 23.474 28.5513 23.4959 28.4744 23.5013C28.4195 23.5013 28.348 23.4904 28.2601 23.4631L28.3535 23.6106L28.0074 23.8346L27.1228 22.4742L27.1283 22.4797ZM28.0623 23.108C28.1173 23.1954 28.1722 23.2446 28.2272 23.2609C28.2821 23.2773 28.337 23.2719 28.381 23.2391C28.4249 23.2118 28.4524 23.1681 28.4579 23.1134C28.4634 23.0588 28.4359 22.9823 28.381 22.8949C28.3315 22.8184 28.2766 22.7692 28.2272 22.7528C28.1722 22.7364 28.1283 22.7419 28.0843 22.7692C28.0349 22.802 28.0074 22.8457 27.9964 22.9058C27.9909 22.9659 28.0129 23.0315 28.0623 23.108Z" fill="white"/>
<path d="M30.0293 21.9827L29.2876 22.458C29.3316 22.5126 29.381 22.5509 29.425 22.5618C29.4909 22.5837 29.5513 22.5727 29.6063 22.5345C29.6447 22.5126 29.6722 22.4799 29.6942 22.4416C29.7052 22.4198 29.7162 22.3815 29.7162 22.3378L30.1063 22.1357C30.1173 22.2722 30.0953 22.387 30.0403 22.4799C29.9909 22.5727 29.892 22.6656 29.7436 22.764C29.6173 22.8459 29.5019 22.8951 29.403 22.9006C29.3041 22.9115 29.2052 22.8896 29.1063 22.8405C29.0074 22.7913 28.9195 22.7148 28.8481 22.6055C28.7492 22.4525 28.7162 22.2941 28.7492 22.1357C28.7821 21.9772 28.8865 21.8461 29.0569 21.7368C29.1942 21.6494 29.3206 21.6002 29.425 21.5893C29.5349 21.5784 29.6338 21.6057 29.7272 21.6549C29.8206 21.7095 29.9085 21.8024 29.9964 21.9335L30.0239 21.9772L30.0293 21.9827ZM29.5349 22.0428C29.4799 21.9772 29.425 21.9335 29.3755 21.9226C29.3261 21.9117 29.2711 21.9226 29.2217 21.9554C29.1613 21.9936 29.1338 22.0482 29.1283 22.1193C29.1283 22.163 29.1393 22.2176 29.1722 22.2777L29.5404 22.0428H29.5349Z" fill="white"/>
</g>
<defs>
<clipPath id="clip0_312_268">
<rect width="138" height="32" fill="white" transform="translate(0.931641 0.0302734)"/>
</clipPath>
</defs>
</svg>
