<svg width="579" height="566" viewBox="0 0 579 566" fill="none" xmlns="http://www.w3.org/2000/svg">
<path d="M1.0615 487.345L2.9815 492.705L9.45151 503.825L14.2015 509.795L14.9115 513.735L18.2815 516.225V520.205L20.2415 522.495L26.5115 523.505L29.8115 522.295L39.3815 521.955L59.5415 526.205L95.0015 554.045L102.422 557.015L126.551 564.705L136.661 552.875L186.211 489.675L207.452 506.255L210.792 506.455L213.422 490.075L214.531 490.685L217.362 476.125L238.602 460.955L246.992 451.345L253.561 452.055L258.311 446.595H261.341L265.892 445.175L269.431 448.715L276.811 445.175L280.151 444.265L283.281 449.825L286.311 449.315L288.431 447.795L291.971 448.705L296.012 452.345L301.882 453.655L305.221 452.945L308.862 453.755L310.882 465.885C310.882 465.885 314.822 461.735 315.132 461.535C315.431 461.335 323.522 456.685 323.522 456.685L327.672 448.895L331.612 444.745L335.352 442.315L331.811 437.155L329.992 431.895L328.471 426.135L328.072 418.755L331.512 412.785L337.982 408.235L341.422 403.585L343.441 404.295L345.061 408.545L347.392 407.835L353.762 405.305L355.582 406.515L357.702 405.405L364.371 408.135L365.382 409.955L369.121 410.565L374.882 401.665L380.242 403.285L383.272 401.265L386.202 401.665L387.621 398.635L391.262 396.005L393.792 396.915L398.242 401.765L399.661 399.335L400.271 394.585L404.011 389.635L405.632 386.605L406.031 383.475L407.242 380.645H409.672L414.021 372.045L418.971 370.125L420.081 366.585H423.081L425.242 370.935L428.882 371.405L436.161 377.405V378.955L441.891 381.045L445.331 378.615L449.312 378.955L451.602 376.665L454.571 376.325L456.862 373.155L460.372 376.725L465.292 374.025L469.002 376.115L475.612 375.985L476.761 373.965L483.161 372.615L486.261 370.665L489.432 372.825L492.401 379.905L493.612 382.735L507.232 388.735L509.992 384.625L514.841 383.685L530.081 381.465L533.451 379.245L535.002 374.455L539.182 374.115C539.182 374.115 539.792 372.025 539.992 372.025C540.192 372.025 552.661 361.975 552.661 361.975L553.271 358.805L560.281 352.405L561.161 348.005L564.331 343.305L572.961 338.655L574.651 335.895L575.862 332.115H577.612L577.882 328.675L576.672 327.395L576.542 322.005L575.261 321.125L574.992 315.665L572.562 312.635L573.982 309.195L571.552 307.505L568.992 296.175L567.172 293.145L567.781 291.185L567.711 286.665L565.692 285.185L564.211 271.765L561.922 270.285V266.985L560.911 264.085L567.721 261.525L566.372 259.235L567.182 250.405L565.161 248.985L565.432 243.055L563.812 243.935L558.821 244.005L555.651 243.065L548.911 242.525L537.721 243.605H528.011L524.841 244.215L521.471 243.745L516.352 243.615L510.552 241.185L508.261 238.485H505.971L504.961 235.785L502.132 227.565L499.641 225.205V221.695L495.661 218.255L491.882 215.285L490.132 212.995L482.852 209.965L481.232 207.205L480.761 201.545C480.761 201.545 478.871 192.745 479.071 192.725C479.271 192.705 480.221 188.935 480.221 188.935L480.091 186.575L477.872 184.145L476.661 177.945L479.091 171.545L474.302 164.335L469.042 160.225L468.372 153.555L470.062 150.115L468.312 146.065L464.742 141.545L466.021 135.005L468.382 134.395L468.252 131.155L465.221 125.825L463.201 123.665H460.771L460.372 124.005L457.742 122.525L457.812 117.335L459.021 114.305L457.471 111.545L458.482 108.575L457.542 106.885L457.471 103.445H460.031L459.692 102.565L458.071 101.415V100.335L460.021 88.4046H462.721V85.5746L460.701 81.3246L459.821 82.5346L459.151 80.6446C459.151 80.6446 460.972 79.4946 461.312 79.4946C461.652 79.4946 463.201 77.2746 463.201 77.2746L462.122 75.9246H459.422L457.672 72.7546H459.362L461.451 72.4846C461.451 72.4846 461.521 70.5946 461.321 70.5946C461.121 70.5946 459.232 70.3246 459.232 70.3246L458.761 68.5046L459.161 66.0746C459.161 66.0746 458.491 64.4546 458.961 64.1146C459.431 63.7746 460.651 59.4646 460.651 59.4646L455.261 57.5746L457.422 55.6846L459.172 53.1946L458.971 49.0146L457.081 49.4846L455.531 50.6946L450.812 47.5246L449.602 44.4246L445.692 43.1446L442.451 47.2546L434.562 51.6346L433.281 45.5646L426.401 45.4946L424.511 47.0446L422.081 45.9646L419.992 46.2346L418.641 48.9346L413.042 48.8046L409.672 45.9046L403.872 46.7846L397.602 40.5846L391.531 43.8246L392.001 48.4746L389.781 46.7246L388.232 46.9946L387.292 48.4146L386.352 44.4346L380.012 38.7746L379.001 36.2846L365.852 38.4446L362.552 36.2846L358.242 33.5246L357.702 31.0346L351.632 27.9346L347.452 30.1546L345.161 29.7546L340.982 24.4946L335.181 25.3046L328.642 24.9646L323.112 21.5946L322.031 12.4946L315.221 9.73462L311.982 4.40462L312.591 1.23462L302.811 4.67462L295.531 3.25462L294.322 9.12462L298.841 15.1946L300.052 23.5546L294.392 34.1346L296.751 36.7646L297.762 44.3146L294.792 46.4746L293.102 52.8146L295.121 54.1646L301.322 60.6346C301.322 60.6346 298.082 74.5946 297.882 74.5946C297.681 74.5946 283.862 75.9446 283.862 75.9446L276.651 80.9346L273.681 86.1946L276.172 89.0246L275.501 90.9146L268.762 99.3446L266.132 100.495L269.572 101.235L272.811 110.405C272.811 110.405 275.711 121.125 275.781 122.205C275.852 123.285 276.452 128.135 276.452 128.135L274.971 132.585L272.882 136.965L270.121 139.255L276.792 141.075L273.892 148.625L270.591 154.625L265.061 157.995L258.522 159.545L252.322 159.075L253.202 156.375L247.941 152.125L250.772 156.915L247.332 158.735L244.632 157.315L241.661 158.255L241.792 162.835L238.621 163.775L234.512 167.285C234.512 167.285 232.552 170.185 232.552 170.525C232.552 170.865 229.852 169.715 229.852 169.715L226.482 172.145L231.941 187.115L230.052 189.275L233.492 196.625L231.871 196.965L230.792 198.515C230.792 198.515 231.731 201.685 232.001 201.815C232.271 201.945 232.941 202.965 232.941 202.965L227.952 206.135L227.072 211.325L227.882 224.475L222.961 224.205L219.931 227.715L215.012 235.245L219.262 246.385C219.262 246.385 255.462 251.105 255.661 251.175C255.861 251.245 263.211 257.915 263.211 257.915L266.112 263.575L284.992 262.485L293.961 267.755L300.971 264.855L306.031 268.295L304.952 270.855L303.262 273.955L299.751 272.405L292.401 277.055L280.672 269.535H258.422L253.672 279.645L251.852 278.415L255.792 268.825L252.251 259.215L238.401 260.635L201.492 254.665L189.661 264.845L178.602 279.135L174.151 284.795L175.091 290.325L177.522 292.345L183.452 288.835L191.811 292.745L190.191 298.675L196.392 301.235L204.482 287.615L205.961 291.255L202.992 294.765L196.251 308.785L170.091 295.845H166.852L162.001 299.885L137.332 332.785L83.4015 403.435L82.7615 406.685L83.4715 408.355L89.7915 415.285L87.1115 416.955L85.2915 414.735L84.2315 415.695L84.6815 418.175L60.8715 426.465L50.0515 424.345L42.3115 449.925L54.4415 453.365L58.2815 456.095L59.3415 460.495L58.6815 468.985L41.6415 474.145L1.0415 487.345H1.0615Z" fill="#EFEFEF"/>
<path d="M418.601 48.9746L419.001 52.1046L420.111 55.8946L418.591 59.2846L420.111 63.5346L421.321 64.7946L419.701 69.9546L419.951 71.6746L423.841 74.0546L421.011 77.1846L421.211 79.3046L425.001 86.9346L424.651 88.2446L423.391 88.5446L423.341 91.4746L417.981 96.9846C417.981 96.9846 417.371 99.6146 417.371 99.9646C417.371 100.315 420.451 104.315 420.451 104.315L416.911 104.825L413.721 106.745L411.141 111.545L410.281 111.795L404.281 114.405L402.801 115.555L393.291 116.835L389.651 118.185L385.871 117.375C385.871 117.375 383.171 117.375 383.511 117.305C383.851 117.235 379.871 118.185 379.871 118.185L377.711 118.525L382.831 100.595L381.081 100.125L378.111 93.7246L373.121 88.7346L372.111 85.3646L370.291 83.0046L365.771 79.7646L362.531 77.3346L360.711 72.4846L357.611 68.2346L355.181 64.5946L352.011 62.7746L350.861 60.4146L348.901 53.4746V47.2746L349.441 40.8746L347.421 36.4246L343.711 34.8046L345.061 29.7446" stroke="#C9C8C9" stroke-miterlimit="10"/>
<path d="M371.772 84.8947L360.422 88.7547L338.982 102.575L335.272 109.445L335.952 114.775L337.702 115.855L336.492 116.735L327.722 116.395L319.702 112.825L321.862 107.085L314.442 103.445V96.5047L309.792 97.3847L308.372 94.8947L306.692 93.4747L304.132 90.9747V89.0847L298.602 81.0647L299.072 77.2947L297.862 74.5947" stroke="#C9C8C9" stroke-miterlimit="10"/>
<path d="M411.171 111.575L412.231 116.705L417.671 116.175L421.591 119.185L425.031 124.015L424.471 125.325L426.441 126.485L425.681 135.085L425.781 138.475L426.441 141.255L425.281 144.545L428.161 151.775C428.161 151.775 430.691 153.795 430.691 153.945C430.691 154.095 435.041 157.935 435.041 157.935L432.561 163.855L433.471 168.555L435.291 170.075L436.911 170.375L439.891 169.005L444.951 167.585L445.761 165.055L449.861 161.005L451.331 160.555L454.921 161.815L457.301 159.035L459.881 159.495L463.521 157.325L466.351 158.945L468.831 158.105" stroke="#C9C8C9" stroke-miterlimit="10"/>
<path d="M377.742 118.555L375.352 125.225L372.962 126.505L374.042 128.425L373.202 130.985L372.962 134.155L374.142 137.795L367.302 143.125L367.642 147.335L366.022 150.135L366.422 152.735L369.082 154.285L368.202 157.895L367.802 160.155L369.762 163.395L369.022 166.525L369.732 168.415L367.442 171.015L366.192 174.185L364.912 176.615L363.562 179.145V170.015L360.662 168.535L354.902 168.705C354.902 168.705 355.272 171.405 355.302 171.505C355.332 171.605 347.752 170.125 347.782 170.025C347.812 169.925 346.942 167.695 346.942 167.695L344.342 168.305C344.342 168.305 339.222 168.545 339.122 168.545C339.022 168.545 335.342 165.575 335.342 165.575L334.562 163.685L330.922 158.595L332.172 152.625L330.282 153.905L327.992 153.705L324.012 151.245L320.342 149.055L319.432 146.695L317.682 146.895L314.812 146.385C314.812 146.385 312.522 146.415 312.282 146.315C312.042 146.215 308.402 144.155 308.402 144.155L307.892 141.625L299.972 138.495L299.032 139.305L295.322 137.485L293.702 139.745L292.962 142.275L288.242 143.895L283.452 145.585L280.622 146.565L278.802 145.385L277.762 145.995L275.812 143.545" stroke="#C9C8C9" stroke-miterlimit="10"/>
<path d="M336.491 116.735L336.251 121.655L336.051 127.585L337.701 129.645L336.281 136.285L336.051 141.105L333.891 147.975L332.171 152.595" stroke="#C9C8C9" stroke-miterlimit="10"/>
<path d="M365.181 176.065C365.211 176.015 368.571 177.005 368.571 177.005L374.361 175.465L378.831 180.845L383.301 184.035L387.371 182.945L390.831 183.325L391.841 184.035L393.811 182.695L395.151 182.875L395.831 181.155L399.851 179.895L396.311 169.635L401.341 168.475L402.761 168.675L406.051 166.805L413.941 166.295L414.341 166.855L416.921 165.385L418.591 162.405L424.051 158.365L428.651 157.405L430.941 154.255" stroke="#C9C8C9" stroke-miterlimit="10"/>
<path d="M435.281 170.075L434.681 171.285L435.691 172.195L435.181 174.375L436.241 176.395V185.085L433.721 186.205L433.461 189.435L434.851 191.105V195.705L442.361 199.755L443.531 203.695L443.121 204.755L445.351 207.535L447.421 211.385L450.761 209.965L452.831 209.515L454.551 208.345L456.321 208.605L460.721 216.945L461.781 217.195L460.971 219.065L463.291 222.055L461.881 226.605H466.081L467.901 227.965H470.071L473.461 226.295L477.651 225.645L481.291 226.445L485.741 231.605H487.621L491.961 236.915L493.631 236.565L502.731 236.915L505.721 237.815" stroke="#C9C8C9" stroke-miterlimit="10"/>
<path d="M491.961 236.915L487.771 244.285L491.961 249.745L492.492 255.065L490.531 256.215L487.771 255.745L487.362 257.425L486.281 259.515L486.961 261.945L486.281 268.825L488.982 271.115L488.852 279.205L487.091 280.285L487.362 283.245L485.542 286.215L487.632 287.225L488.711 289.315L492.761 290.465L494.982 289.715L502.331 293.625L505.771 292.285L509.951 294.105V295.715L512.711 294.165L519.721 295.175L523.362 287.835L530.911 282.975H534.622L534.281 280.075L528.151 277.985L528.221 276.905L524.781 276.305L525.122 273.065L527.542 272.465L528.622 267.265L531.321 260.665L531.992 256.345L534.151 255.405L537.182 254.465L535.232 251.295L536.442 246.035L535.292 243.605" stroke="#C9C8C9" stroke-miterlimit="10"/>
<path d="M571.001 305.045L567.911 304.615L563.911 306.085L560.121 308.155L556.731 309.625L552.791 308.815L551.371 309.625L544.851 308.565L537.181 313.465L532.511 311.195L529.031 311.295L528.011 312.605L525.541 310.985L520.481 311.395L518.661 312.705L517.901 311.445L518.611 303.255L518.311 298.555L519.721 295.175" stroke="#C9C8C9" stroke-miterlimit="10"/>
<path d="M492.762 290.465L492.222 301.925L491.412 304.885L492.762 307.715L490.332 316.215L488.042 319.715L483.722 326.465L482.102 329.425L484.402 334.285L486.282 338.465L485.542 342.645L490.462 347.225L490.332 350.595L492.762 357.875L491.812 362.195L488.312 366.605L486.282 370.685" stroke="#C9C8C9" stroke-miterlimit="10"/>
<path d="M488.712 289.315L487.432 298.685L484.132 307.715L482.102 313.465L478.192 323.625L480.132 326.765L476.742 327.065L471.082 322.365L465.272 317.465L461.472 316.445L450.762 312.105L443.072 310.685L440.692 308.195L438.322 307.345L435.492 311.995V319.235L433.722 319.485L426.352 324.905L424.672 328.755V332.125L425.882 333.435L424.672 343.655L420.422 345.065L419.612 346.485L417.032 348.655H414.402L410.762 350.625L410.002 356.145L408.082 358.455L411.522 361.095L416.582 362.465L420.222 364.075L420.122 366.605" stroke="#C9C8C9" stroke-miterlimit="10"/>
<path d="M485.542 286.215L482.102 285.255L479.582 287.785L476.952 286.265L472.142 285.255L466.432 283.485L463.042 285.255L458.142 285.355L455.912 286.875L452.932 286.825L451.562 287.785L450.602 285.635L444.742 286.465L443.732 287.785L440.092 286.515L432.602 287.525L431.342 288.335L427.752 285.905H425.532L425.322 285.355L424.062 286.565L423.762 283.985L415.462 287.225L427.362 296.465L423.522 301.785L419.472 302.735L417.452 302.055L417.182 305.765L415.832 309.405L416.312 310.345L414.082 319.985V321.875H415.432L424.672 328.755" stroke="#C9C8C9" stroke-miterlimit="10"/>
<path d="M443.122 204.755L441.701 205.165L439.682 203.945L436.091 206.075L435.641 208.395L436.602 210.975L435.132 215.325L433.461 216.435V226.395L433.672 230.145L430.781 234.335L429.571 233.935L426.942 236.615L428.711 239.545L427.242 241.465L426.281 245.005L428.102 248.295V250.265L423.812 254.105L419.812 252.335L416.682 255.525L411.521 257.295L410.312 258.055L407.021 256.835L405.502 255.165L403.531 262.245L408.031 272.815L407.932 274.935L411.622 281.925L415.461 287.225" stroke="#C9C8C9" stroke-miterlimit="10"/>
<path d="M434.851 195.705L436.061 198.905L435.461 201.745L430.731 204.105L429.221 203.665L426.151 200.765L424.331 200.425L422.311 201.135L419.341 199.245L408.321 199.905L407.141 200.695L406.901 202.885L405.551 203.525V207.065L405.121 208.515L401.911 210.905L398.811 211.855L390.761 212.695L387.791 211.075L383.811 210.475L379.361 207.335L367.901 219.405L381.591 232.015L376.671 237.065H380.781L389.141 238.215L397.561 240.165L398.641 242.055L400.731 243.605L400.461 245.585L405.501 255.165" stroke="#C9C8C9" stroke-miterlimit="10"/>
<path d="M363.551 179.125L356.911 185.495L348.321 196.314L346.291 201.165L343.771 202.484L341.241 204.405L335.171 209.865L334.061 213.305H332.341L322.941 222.405L334.061 232.314L338.411 235.225L340.831 232.825L343.971 232.015L357.321 217.655L361.461 213.305L367.901 219.405" stroke="#C9C8C9" stroke-miterlimit="10"/>
<path d="M303.251 273.945L301.301 280.885C302.111 281.015 304.401 280.885 304.401 280.885L309.391 283.855L317.211 272.395L325.701 265.515L326.101 256.955L327.721 254.665L324.751 250.485L323.741 244.085C323.741 244.085 316.801 239.775 316.731 239.505C316.661 239.235 320.241 224.065 320.241 224.065L322.941 222.415L319.651 220.845L317.221 221.755L311.711 218.515L304.581 217.505L303.671 216.395L303.871 208.055L301.701 206.845H299.021L296.441 204.065L297.911 200.935L297.761 198.715L300.091 194.925L298.831 190.325L300.701 187.445L297.821 181.985L295.441 185.975L294.731 192.745L287.401 199.575L285.481 198.815L284.971 200.285L283.301 200.635L280.061 196.695L275.511 194.065L274.501 194.465L273.081 198.255L274.041 206.145L274.801 208.265L269.641 212.715V216.815L267.361 217.575L263.821 216.155L261.191 218.985L261.951 220.905L260.131 222.825L262.411 230.055V232.435L267.921 239.515L256.151 251.595" stroke="#C9C8C9" stroke-miterlimit="10"/>
<path d="M297.242 182.915L294.352 177.875L295.792 176.735L296.712 175.385L303.522 174.435L307.772 172.615L311.952 173.425L314.582 169.515L315.522 163.045L315.052 157.115L314.642 149.965L313.772 146.365" stroke="#C9C8C9" stroke-miterlimit="10"/>
<path d="M411.521 361.095L410.002 365.035L405.701 367.465C405.701 367.465 403.271 370.095 403.071 370.145C402.871 370.195 399.581 373.735 399.581 373.735L400.641 376.115C400.641 376.115 398.061 381.425 397.761 381.475C397.461 381.525 395.942 380.665 395.942 380.665L396.502 378.035L391.552 381.475L389.172 385.265L388.211 386.575L387.702 390.515L387.042 391.675L387.651 398.655" stroke="#C9C8C9" stroke-miterlimit="10"/>
<path d="M383.311 401.295L381.132 399.975L378.452 395.275L379.362 393.205L379.411 384.505L380.582 380.815L380.882 374.845L385.681 371.665L378.221 371.295L376.191 377.225L372.691 376.415L377.142 358.455L375.221 355.985L370.561 357.405L367.732 356.195L364.602 355.985L358.732 358.015L353.172 358.455H350.042L354.281 350.425L356.711 343.145L364.501 336.165L364.702 333.535L373.802 336.475L378.052 332.835L385.681 331.715L391.702 328.755L396.352 332.525L398.682 334.655V339.605L402.521 342.035L404.442 344.865L412.352 349.765" stroke="#C9C8C9" stroke-miterlimit="10"/>
<path d="M350.042 358.455L346.942 361.925L346.332 365.975L343.702 363.755L339.122 364.095L335.552 360.725L332.252 361.805L330.972 358.475V352.905C330.972 352.905 330.702 350.815 330.972 350.685C331.242 350.555 333.332 348.795 333.332 348.795L336.432 345.895L337.982 341.785L336.772 338.685L336.372 336.665L333.882 332.625L337.052 328.045L336.382 321.435L334.562 320.965L332.472 314.295L332.942 311.665L330.312 303.575L324.582 289.755L328.692 275.225L332.532 272.895L335.362 274.245L336.912 273.905L340.422 276.195L344.462 278.955L347.222 288.195L353.622 301.075L354.532 303.585L357.502 302.905L368.052 299.595L371.962 313.415L372.772 318.675L375.622 330.045L372.912 331.455L374.602 335.845" stroke="#C9C8C9" stroke-miterlimit="10"/>
<path d="M325.701 265.515L328.531 265.925L332.511 272.865" stroke="#C9C8C9" stroke-miterlimit="10"/>
<path d="M283.701 271.475L284.711 289.315L285.591 291.675L280.941 300.705L278.511 311.495L279.721 314.195L278.511 327.205L282.051 325.245L286.731 325.715L295.431 330.975L305.881 340.285L308.981 339.335L311.271 340.825L313.091 340.075L313.971 346.415L320.101 348.645L323.001 348.015L330.911 352.465" stroke="#C9C8C9" stroke-miterlimit="10"/>
<path d="M313.972 346.414L311.612 350.225L310.292 354.574L306.652 357.104L303.922 359.424L301.292 357.905L300.492 355.884L298.462 354.775L296.642 355.174L289.482 352.465L285.522 356.195L283.502 359.424L280.972 360.535L278.512 358.454L274.602 355.384L272.072 350.225L270.452 351.234L267.322 349.315L266.312 346.414L261.552 348.014L259.732 347.085L258.012 349.315L253.562 349.715L251.542 345.775L247.192 340.924L246.792 339.704L242.952 340.715L239.612 337.585L239.002 336.065L235.772 334.555H227.582H226.462L222.122 333.134L219.692 334.145L215.542 334.555L209.982 331.715H208.562L207.652 332.935L201.492 333.745L195.222 338.294L193.702 341.734L187.832 338.195L188.342 323.625L191.072 316.145L195.522 312.604L195.412 308.375" stroke="#C9C8C9" stroke-miterlimit="10"/>
<path d="M303.922 359.425L303.721 363.405L307.632 369.605L305.681 371.225L306.822 373.785L305.681 376.615V379.175L301.292 382.555L302.371 388.615L306.552 392.665L304.461 396.845L303.591 399.135L306.552 401.295L306.012 404.665L303.181 410.055L306.422 411.535L306.281 413.295L311.142 412.075L310.332 414.905L313.292 415.585L317.202 417.205L318.422 416.525L322.732 417.875L324.552 419.895H328.151" stroke="#C9C8C9" stroke-miterlimit="10"/>
<path d="M250.902 345.065L248.712 345.885H245.202L242.372 349.525L243.852 352.475L243.582 354.515L242.372 356.135L245.882 357.215L250.902 362.475L251.942 366.625L250.902 368.545L252.892 371.245L250.062 374.615L250.902 378.655L254.782 381.755L256.802 386.335L254.782 394.155L259.232 394.965L259.902 397.395V402.385L262.602 404.545L263.542 407.105C263.542 407.105 265.092 407.985 265.292 408.045C265.492 408.115 268.592 408.585 268.592 408.585L270.682 409.865L271.292 411.955L272.372 413.165L271.702 416.535L272.372 419.165V424.225L270.752 429.285L267.242 430.295L267.912 432.515L269.122 433.395L267.912 435.215L264.402 436.495L263.792 440.805L265.452 445.325" stroke="#C9C8C9" stroke-miterlimit="10"/>
<path d="M254.781 394.145L250.901 392.695L246.791 394.145H245.071L243.961 398.255L241.831 402.405L238.291 403.215L236.371 401.695L234.251 402.705L232.831 405.745V407.055L230.611 407.765H229.291L227.371 413.525L226.461 417.575L227.471 418.485L230.511 422.835L230.411 424.855L233.041 426.165L234.351 430.715L236.581 435.265L239.711 439.215L241.731 443.565L242.371 445.685L244.971 449.625L246.991 451.345" stroke="#C9C8C9" stroke-miterlimit="10"/>
<path d="M1.0615 487.345L2.9815 492.705L9.45151 503.825L14.2015 509.795L14.9115 513.735L18.2815 516.225V520.205L20.2415 522.495L26.5115 523.505L29.8115 522.295L39.3815 521.955L59.5415 526.205L95.0015 554.045L102.422 557.015L126.551 564.705L136.661 552.875L186.211 489.675L207.452 506.255L210.792 506.455L213.422 490.075L214.531 490.685L217.362 476.125L238.602 460.955L246.992 451.345L253.561 452.055L258.311 446.595H261.341L265.892 445.175L269.431 448.715L276.811 445.175L280.151 444.265L283.281 449.825L286.311 449.315L288.431 447.795L291.971 448.705L296.012 452.345L301.882 453.655L305.221 452.945L308.862 453.755L310.882 465.885C310.882 465.885 314.822 461.735 315.132 461.535C315.432 461.335 323.522 456.685 323.522 456.685L327.672 448.895L331.612 444.745L335.352 442.315L331.811 437.155L329.992 431.895L328.471 426.135L328.072 418.755L331.512 412.785L337.982 408.235L341.422 403.585L343.441 404.295L345.061 408.545L347.392 407.835L353.762 405.305L355.582 406.515L357.702 405.405L364.371 408.135L365.382 409.955L369.121 410.565L374.882 401.665L380.242 403.285L383.272 401.265L386.202 401.665L387.621 398.635L391.262 396.005L393.792 396.915L398.242 401.765L399.661 399.335L400.271 394.585L404.011 389.635L405.632 386.605L406.031 383.475L407.242 380.645H409.672L414.021 372.045L418.971 370.125L420.081 366.585H423.081L425.242 370.935L428.882 371.405L436.161 377.405V378.955L441.891 381.045L445.331 378.615L449.312 378.955L451.602 376.665L454.571 376.325L456.862 373.155L460.372 376.725L465.292 374.025L469.002 376.115L475.612 375.985L476.761 373.965L483.161 372.615L486.261 370.665L489.432 372.825L492.401 379.905L493.612 382.735L507.232 388.735L509.992 384.625L514.841 383.685L530.081 381.465L533.451 379.245L535.002 374.455L539.182 374.115C539.182 374.115 539.792 372.025 539.992 372.025C540.192 372.025 552.661 361.975 552.661 361.975L553.271 358.805L560.281 352.405L561.161 348.005L564.331 343.305L572.961 338.655L574.651 335.895L575.862 332.115H577.612L577.882 328.675L576.672 327.395L576.542 322.005L575.261 321.125L574.992 315.665L572.562 312.635L573.982 309.195L571.552 307.505L568.992 296.175L567.172 293.145L567.781 291.185L567.711 286.665L565.692 285.185L564.211 271.765L561.922 270.285V266.985L560.911 264.085L567.721 261.525L566.372 259.235L567.182 250.405L565.161 248.985L565.432 243.055L563.812 243.935L558.821 244.005L555.651 243.065L548.911 242.525L537.721 243.605H528.011L524.841 244.215L521.471 243.745L516.352 243.615L510.552 241.185L508.261 238.485H505.971L504.961 235.785L502.132 227.565L499.641 225.205V221.695L495.661 218.255L491.882 215.285L490.132 212.995L482.852 209.965L481.232 207.205L480.761 201.545C480.761 201.545 478.871 192.745 479.071 192.725C479.271 192.705 480.221 188.935 480.221 188.935L480.091 186.575L477.872 184.145L476.661 177.945L479.091 171.545L474.302 164.335L469.042 160.225L468.372 153.555L470.062 150.115L468.312 146.065L464.742 141.545L466.021 135.005L468.382 134.395L468.252 131.155L465.221 125.825L463.201 123.665H460.771L460.372 124.005L457.742 122.525L457.812 117.335L459.021 114.305L457.471 111.545L458.482 108.575L457.542 106.885L457.471 103.445H460.031L459.692 102.565L458.071 101.415V100.335L460.021 88.4046H462.721V85.5746L460.701 81.3246L459.821 82.5346L459.151 80.6446C459.151 80.6446 460.972 79.4946 461.312 79.4946C461.652 79.4946 463.201 77.2746 463.201 77.2746L462.122 75.9246H459.422L457.672 72.7546H459.362L461.451 72.4846C461.451 72.4846 461.521 70.5946 461.321 70.5946C461.121 70.5946 459.232 70.3246 459.232 70.3246L458.761 68.5046L459.161 66.0746C459.161 66.0746 458.491 64.4546 458.961 64.1146C459.431 63.7746 460.651 59.4646 460.651 59.4646L455.261 57.5746L457.422 55.6846L459.172 53.1946L458.971 49.0146L457.081 49.4846L455.531 50.6946L450.812 47.5246L449.602 44.4246L445.692 43.1446L442.451 47.2546L434.562 51.6346L433.281 45.5646L426.401 45.4946L424.511 47.0446L422.081 45.9646L419.992 46.2346L418.641 48.9346L413.042 48.8046L409.672 45.9046L403.872 46.7846L397.602 40.5846L391.531 43.8246L392.001 48.4746L389.781 46.7246L388.232 46.9946L387.292 48.4146L386.352 44.4346L380.012 38.7746L379.001 36.2846L365.852 38.4446L362.552 36.2846L358.242 33.5246L357.702 31.0346L351.632 27.9346L347.452 30.1546L345.161 29.7546L340.982 24.4946L335.181 25.3046L328.642 24.9646L323.112 21.5946L322.031 12.4946L315.221 9.73462L311.982 4.40462L312.591 1.23462L302.811 4.67462L295.531 3.25462L294.322 9.12462L298.841 15.1946L300.052 23.5546L294.392 34.1346L296.751 36.7646L297.762 44.3146L294.792 46.4746L293.102 52.8146L295.121 54.1646L301.322 60.6346C301.322 60.6346 298.082 74.5946 297.882 74.5946C297.682 74.5946 283.862 75.9446 283.862 75.9446L276.651 80.9346L273.681 86.1946L276.172 89.0246L275.501 90.9146L268.762 99.3446L266.132 100.495L269.572 101.235L272.811 110.405C272.811 110.405 275.711 121.125 275.781 122.205C275.851 123.285 276.452 128.135 276.452 128.135L274.971 132.585L272.882 136.965L270.121 139.255L276.792 141.075L273.892 148.625L270.591 154.625L265.061 157.995L258.522 159.545L252.322 159.075L253.202 156.375L247.941 152.125L250.772 156.915L247.332 158.735L244.632 157.315L241.661 158.255L241.792 162.835L238.621 163.775L234.512 167.285C234.512 167.285 232.552 170.185 232.552 170.525C232.552 170.865 229.852 169.715 229.852 169.715L226.482 172.145L231.941 187.115L230.052 189.275L233.492 196.625L231.871 196.965L230.792 198.515C230.792 198.515 231.731 201.685 232.001 201.815C232.271 201.945 232.941 202.965 232.941 202.965L227.952 206.135L227.072 211.325L227.882 224.475L222.961 224.205L219.931 227.715L215.012 235.245L219.262 246.385C219.262 246.385 255.461 251.105 255.661 251.175C255.861 251.245 263.211 257.915 263.211 257.915L266.112 263.575L284.992 262.485L293.961 267.755L300.971 264.855L306.031 268.295L304.952 270.855L303.262 273.955L299.751 272.405L292.401 277.055L280.672 269.535H258.422L253.672 279.645L251.852 278.415L255.792 268.825L252.251 259.215L238.401 260.635L201.492 254.665L189.661 264.845L178.602 279.135L174.151 284.795L175.091 290.325L177.522 292.345L183.452 288.835L191.811 292.745L190.191 298.675L196.392 301.235L204.482 287.615L205.961 291.255L202.992 294.765L196.251 308.785L170.091 295.845H166.852L162.001 299.885L137.332 332.785L83.4015 403.435L82.7615 406.685L83.4715 408.355L89.7915 415.285L87.1115 416.955L85.2915 414.735L84.2315 415.695L84.6815 418.175L60.8715 426.465L50.0515 424.345L42.3115 449.925L54.4415 453.365L58.2815 456.095L59.3415 460.495L58.6815 468.985L41.6415 474.145L1.0415 487.345H1.0615Z" stroke="#5B5B5B" stroke-width="2" stroke-linecap="round" stroke-linejoin="round"/>
<path d="M385.252 237.685L388.532 245.585L380.712 248.465L382.402 252.575L378.962 256.825L376.262 259.315L381.652 272.525L380.982 275.495L383.272 278.405L382.402 281.695L381.182 283.855L380.982 286.015L382.402 288.975L381.592 289.655L374.512 289.315L370.402 297.265H368.372L367.092 297.675L368.042 299.565" stroke="#C9C8C9" stroke-miterlimit="10"/>
<path d="M418.651 289.695L408.551 294.035L405.451 288.775L402.281 287.625L397.901 290.055L394.941 292.014L392.981 292.145L391.091 294.035L390.221 292.685L385.231 291.745L382.401 288.975" stroke="#C9C8C9" stroke-miterlimit="10"/>
</svg>
