<svg width="45" height="45" viewBox="0 0 45 45" fill="none" xmlns="http://www.w3.org/2000/svg">
<path d="M11.5256 9.48911C14.3896 6.66842 18.2491 5.08902 22.2689 5.09278C26.2949 5.09278 30.1596 6.67128 33.0123 9.48911C35.5954 12.0374 36.9411 14.8901 37.2968 17.8528C37.6506 20.7898 37.0181 23.7378 35.8118 26.5024C33.4174 32.0024 28.6581 37.0038 24.0931 40.2579C23.561 40.6386 22.9232 40.8433 22.2689 40.8433C21.6147 40.8433 20.9768 40.6386 20.4448 40.2579C15.8798 37.0038 11.1204 32.0006 8.72427 26.5024C7.51977 23.7378 6.8891 20.7898 7.2411 17.8509C7.59677 14.8901 8.94243 12.0393 11.5256 9.48911Z" fill="#0E8FEB"/>
<path d="M16.9465 13.9782C15.5348 15.3899 14.7417 17.3046 14.7417 19.301C14.7417 21.2975 15.5348 23.2121 16.9465 24.6238C18.3582 26.0355 20.2728 26.8286 22.2693 26.8286C24.2657 26.8286 26.1804 26.0355 27.5921 24.6238C29.0038 23.2121 29.7969 21.2975 29.7969 19.301C29.7969 17.3046 29.0038 15.3899 27.5921 13.9782C26.1804 12.5665 24.2657 11.7734 22.2693 11.7734C20.2728 11.7734 18.3582 12.5665 16.9465 13.9782Z" fill="white"/>
</svg>
