<svg width="17" height="17" viewBox="0 0 17 17" fill="none" xmlns="http://www.w3.org/2000/svg">
<path d="M11.9071 4.76491C11.4137 4.2682 10.8268 3.87405 10.1804 3.60517C9.53389 3.33628 8.84061 3.19799 8.14046 3.19824C6.72597 3.19824 5.36942 3.76015 4.36923 4.76034C3.36903 5.76053 2.80713 7.11709 2.80713 8.53158C2.80713 9.94606 3.36903 11.3026 4.36923 12.3028C5.36942 13.303 6.72597 13.8649 8.14046 13.8649C10.3116 13.8649 12.1676 12.569 12.9986 10.7093C13.1836 10.2953 12.8518 9.86491 12.3983 9.86491C12.104 9.86491 11.847 10.0535 11.7159 10.317C11.4232 10.9054 10.9885 11.4148 10.448 11.7975C9.77336 12.2751 8.96709 12.5316 8.14046 12.5316C7.0796 12.5316 6.06218 12.1102 5.31204 11.36C4.56189 10.6099 4.14046 9.59244 4.14046 8.53158C4.14046 7.47071 4.56189 6.45329 5.31204 5.70315C6.06218 4.953 7.0796 4.53158 8.14046 4.53158C9.24713 4.53158 10.2338 4.99158 10.9538 5.71824L9.66068 7.01136C9.3457 7.32634 9.56878 7.86491 10.0142 7.86491H13.2738C13.3843 7.86491 13.4738 7.77537 13.4738 7.66491V4.40535C13.4738 3.9599 12.9352 3.73681 12.6202 4.0518L11.9071 4.76491Z" fill="#0E8FEB"/>
</svg>
