<svg width="17" height="17" viewBox="0 0 17 17" fill="none" xmlns="http://www.w3.org/2000/svg">
<path d="M14.6398 14.3048L11.7445 11.4095M11.7445 11.4095C12.2397 10.9142 12.6326 10.3263 12.9006 9.67919C13.1686 9.0321 13.3066 8.33856 13.3066 7.63816C13.3066 6.93776 13.1686 6.24421 12.9006 5.59713C12.6326 4.95004 12.2397 4.36208 11.7445 3.86682C11.2492 3.37157 10.6612 2.97871 10.0142 2.71067C9.36706 2.44264 8.67352 2.30469 7.97312 2.30469C7.27272 2.30469 6.57917 2.44264 5.93209 2.71067C5.285 2.97871 4.69704 3.37157 4.20179 3.86682C3.20157 4.86704 2.63965 6.22363 2.63965 7.63816C2.63965 9.05268 3.20157 10.4093 4.20179 11.4095C5.20201 12.4097 6.55859 12.9716 7.97312 12.9716C9.38764 12.9716 10.7442 12.4097 11.7445 11.4095Z" stroke="#727272" stroke-width="1.4" stroke-linecap="round" stroke-linejoin="round"/>
</svg>
