<svg width="19" height="19" viewBox="0 0 19 19" fill="none" xmlns="http://www.w3.org/2000/svg">
<path d="M9.14075 12.2568C8.44456 12.2568 7.77688 11.9803 7.28459 11.488C6.79231 10.9957 6.51575 10.328 6.51575 9.63184C6.51575 8.93564 6.79231 8.26797 7.28459 7.77568C7.77688 7.2834 8.44456 7.00684 9.14075 7.00684C9.83694 7.00684 10.5046 7.2834 10.9969 7.77568C11.4892 8.26797 11.7657 8.93564 11.7657 9.63184C11.7657 10.328 11.4892 10.9957 10.9969 11.488C10.5046 11.9803 9.83694 12.2568 9.14075 12.2568ZM14.7132 10.3593C14.7432 10.1193 14.7657 9.87934 14.7657 9.63184C14.7657 9.38434 14.7432 9.13684 14.7132 8.88184L16.2957 7.65934C16.4382 7.54684 16.4757 7.34434 16.3857 7.17934L14.8857 4.58434C14.7957 4.41934 14.5932 4.35184 14.4282 4.41934L12.5607 5.16934C12.1707 4.87684 11.7657 4.62184 11.2932 4.43434L11.0157 2.44684C11.0005 2.3585 10.9545 2.27841 10.8859 2.22075C10.8172 2.16309 10.7304 2.1316 10.6407 2.13184H7.64075C7.45325 2.13184 7.29575 2.26684 7.26575 2.44684L6.98825 4.43434C6.51575 4.62184 6.11075 4.87684 5.72075 5.16934L3.85325 4.41934C3.68825 4.35184 3.48575 4.41934 3.39575 4.58434L1.89575 7.17934C1.79825 7.34434 1.84325 7.54684 1.98575 7.65934L3.56825 8.88184C3.53825 9.13684 3.51575 9.38434 3.51575 9.63184C3.51575 9.87934 3.53825 10.1193 3.56825 10.3593L1.98575 11.6043C1.84325 11.7168 1.79825 11.9193 1.89575 12.0843L3.39575 14.6793C3.48575 14.8443 3.68825 14.9043 3.85325 14.8443L5.72075 14.0868C6.11075 14.3868 6.51575 14.6418 6.98825 14.8293L7.26575 16.8168C7.29575 16.9968 7.45325 17.1318 7.64075 17.1318H10.6407C10.8282 17.1318 10.9857 16.9968 11.0157 16.8168L11.2932 14.8293C11.7657 14.6343 12.1707 14.3868 12.5607 14.0868L14.4282 14.8443C14.5932 14.9043 14.7957 14.8443 14.8857 14.6793L16.3857 12.0843C16.4757 11.9193 16.4382 11.7168 16.2957 11.6043L14.7132 10.3593Z" fill="#686868"/>
</svg>
